<?xml version="1.0" encoding="UTF-8"?>
<svg width="24" height="24" viewBox="0 0 24 24" fill="none" xmlns="http://www.w3.org/2000/svg">
  <path d="M12 2C6.48 2 2 6.48 2 12C2 17.52 6.48 22 12 22C13.1 22 14 21.1 14 20V17.97C14 16.87 14.9 15.97 16 15.97C17.1 15.97 18 16.87 18 17.97V20C18 21.1 18.9 22 20 22C21.1 22 22 21.1 22 20C22 14.48 17.52 10 12 10V2Z" stroke="currentColor" strokeWidth="2" strokeLinecap="round" strokeLinejoin="round"/>
  <path d="M7 12C7.55228 12 8 11.5523 8 11C8 10.4477 7.55228 10 7 10C6.44772 10 6 10.4477 6 11C6 11.5523 6.44772 12 7 12Z" fill="currentColor"/>
  <path d="M17 7C17.5523 7 18 6.55228 18 6C18 5.44772 17.5523 5 17 5C16.4477 5 16 5.44772 16 6C16 6.55228 16.4477 7 17 7Z" fill="currentColor"/>
  <path d="M17 17C17.5523 17 18 16.5523 18 16C18 15.4477 17.5523 15 17 15C16.4477 15 16 15.4477 16 16C16 16.5523 16.4477 17 17 17Z" fill="currentColor"/>
  <path d="M7 7C7.55228 7 8 6.55228 8 6C8 5.44772 7.55228 5 7 5C6.44772 5 6 5.44772 6 6C6 6.55228 6.44772 7 7 7Z" fill="currentColor"/>
</svg>
