<svg xmlns="http://www.w3.org/2000/svg" viewBox="0 0 600 500" width="600" height="500">
  <path fill="none" stroke="#333333" stroke-width="8" stroke-linecap="round" stroke-linejoin="round" d="M233.1 341.9c-33.8-23.4-69.5-89-69.5-148.6 0-89.4 69.5-159 155-159s155 69.5 155 159c0 59.7-35.7 125.2-69.5 148.6m-171-0.1c0 0-97-2.6-97 90.6 0 93.2 52.9 110.4 52.9 110.4m0 0l21.1-201.1m360.9 0.1c0 0 97-2.6 97 90.6 0 93.2-52.9 110.4-52.9 110.4m0 0l-21.1-201.1M453.2 134.3c0 0 28.5-155-112.6-155-141.1 0-112.6 155-112.6 155m225.2 0c0 0 28.5-155 112.6-155 84.1 0 112.6 155 112.6 155M313.3 212.8c0 69.5-56.3 125.9-125.9 125.9S61.6 282.3 61.6 212.8s56.3-125.9 125.9-125.9 125.8 56.4 125.8 125.9zm60.5-0.3c36.9 5.8 73.7-44.8 73.7-44.8m0 0s60.6 39 0 92"/>
</svg>
