<svg version="1.0" id="Layer_1" xmlns="http://www.w3.org/2000/svg" xmlns:xlink="http://www.w3.org/1999/xlink" x="0px" y="0px" viewBox="0 0 1024 1024" style="enable-background:new 0 0 1024 1024;" xml:space="preserve" height="100px" width="100px" transform="rotate(0) scale(1, 1)">
<style type="text/css">.st0 { fill: #ecedef; }</style>
<g>
	<g>
		<path class="st0" d="M1024,0v1024H0V0H1024z M664,409l0.8,36.7c6.7,6.3,10.3,15.8,17.7,21.3c21.3,15.6,88.2,14.1,113.5,8.5&#10;&#9;&#9;&#9;c64.9-14.4,41.6-63.8,45-113c1.7-24.1,12.3-54.7,37.8-62.2c9.4-2.8,10.5-1.2,18.8-0.4c16.4,1.6,3.8-27.5,0.2-35.3&#10;&#9;&#9;&#9;C867,198,777.8,190.2,715.2,209.7c-12.1,3.8-23.1,9.5-34.7,14.3c-67.9-34.6-154.2-34.4-221,2.9c-65.9-32.9-172.8-40.8-214.9,32.1&#10;&#9;&#9;&#9;c-4.3,7.5-13.2,27.2-11.6,35.4c1.3,6.3,9.1,3.2,13.5,3.5c35.6,2.5,47.4,38.9,49.5,69.5c2.1,31.6-11.2,80.6,22,100&#10;&#9;&#9;&#9;c25.5,14.9,92,15.5,119,4.9c13.4-5.2,20.6-12.6,26.9-25.1c0.5-1.1-0.5-1.9,2.1-1.4c1,17.5,8.4,31.8,25.5,37.9&#10;&#9;&#9;&#9;c6.1-8.2,10.5-21.1,20.5-25.4c8-3.4,14.7-2.6,21.6-9.9c5-5.2,7.3-17.3,14.3-19.2c10.9-2.9,21.9,5.6,32.4-4.6&#10;&#9;&#9;&#9;c2.6-2.5,7.7-12.5,9.6-13.4c4.8-2.3,10.3,0.9,14.6,1.4c15.7,2,18.7-12.3,29-13.9C646.2,397.2,651,411.8,664,409z M195.1,519&#10;&#9;&#9;&#9;c25,7.6,50,12.5,59.5-18c5.7-18.3,9.5-48,12.3-67.7c2.6-17.6,8.3-52.6,1.6-68.3c-10.2-24.2-45.7-32-66.8-17.8&#10;&#9;&#9;&#9;c-15.2,10.2-38.2,51.3-48.5,68.5c-7.9,13.1-26.5,40.9-28.1,54.9c-3.2,27.8,25.6,31.9,44.9,40.9c-7,14.7-11.2,30.7-17.3,45.7&#10;&#9;&#9;&#9;c-1.5,3.6-3.7,10.2-5.9,13.1c-4.4,5.8-16.5,6.1-18.9,15.1c-7.8,27.8-22.3,57-29.3,84.7c-0.7,2.7-2.6,6.1,0.3,8.2&#10;&#9;&#9;&#9;c1.7,1.3,6.6,2.2,7.2-0.7l30-88c10.6-9.7,16.1-7.8,22.5-22.5c7.4-16.9,11.9-36.4,19.8-53.3l7.5,2.6l-19.8,58.2&#10;&#9;&#9;&#9;c-0.2,3.6-0.7,8.1-0.2,11.7c0.8,4.8,6.1,7.7,4.7,12.8L145,675.6l2,5.9l6.5-1.6l26.3-78.7c2.9-9.7-6.9-15.4-4.5-24.5L195.1,519z"/>
		<path d="M664,409c-13,2.8-17.8-11.8-30.4-9.9c-10.3,1.5-13.3,15.9-29,13.9c-4.3-0.5-9.8-3.8-14.6-1.4c-1.9,0.9-7,10.9-9.6,13.4&#10;&#9;&#9;&#9;c-10.5,10.1-21.5,1.6-32.4,4.6c-7,1.9-9.3,13.9-14.3,19.2c-6.9,7.2-13.6,6.5-21.6,9.9c-10,4.2-14.4,17.2-20.5,25.4&#10;&#9;&#9;&#9;c-17.1-6.1-24.5-20.4-25.5-37.9c-2.6-0.5-1.6,0.4-2.1,1.4c-6.3,12.5-13.5,19.8-26.9,25.1c-27,10.5-93.5,9.9-119-4.9&#10;&#9;&#9;&#9;c-33.2-19.4-19.9-68.5-22-100c-2-30.6-13.9-67-49.5-69.5c-4.4-0.3-12.3,2.8-13.5-3.5c-1.6-8.2,7.2-27.9,11.6-35.4&#10;&#9;&#9;&#9;c42.2-73,149.1-65.1,214.9-32.1c66.8-37.3,153-37.5,221-2.9c11.6-4.8,22.6-10.6,34.7-14.3c62.5-19.5,151.7-11.8,182.6,54.9&#10;&#9;&#9;&#9;c3.6,7.7,16.1,36.9-0.2,35.3c-8.3-0.8-9.5-2.4-18.8,0.4c-25.5,7.5-36.1,38.2-37.8,62.2c-3.4,49.2,19.9,98.6-45,113&#10;&#9;&#9;&#9;c-25.3,5.6-92.2,7.1-113.5-8.5c-7.5-5.5-11-14.9-17.7-21.3L664,409z M895,288c-21.8-86.6-131.9-90.5-200-59.5&#10;&#9;&#9;&#9;c-5,2.3-8.4,6.7-14.5,6.6c-5.1-0.1-21.2-9.6-28-12.1c-60.6-22.7-135.2-18.3-191.1,15c-50.5-21.6-109.6-36-162.8-13.9&#10;&#9;&#9;&#9;c-28.3,11.8-46.2,35.2-55.6,63.8c34.6-2.7,56.8,29.8,59,61c2.6-1.1,2-5,2.9-7.6c6-16.8,13.2-31.3,27-43&#10;&#9;&#9;&#9;c26.4-22.2,69.8-21,97.3-1.3c29.4,21.1,37.1,62.1,40.2,95.8c6.3-39.4,20.5-85.3,59.8-103.2c31.4-14.3,77.8-10,104.1,13.2&#10;&#9;&#9;&#9;c22.8,20.2,30.1,50.7,33,80c6.2-41.3,22.3-87.5,67.5-98.5c35.7-8.7,75.6,2.1,91.9,37.1l8.6,23.4C838.9,314.4,861.6,286,895,288z&#10;&#9;&#9;&#9; M375.8,292.3c-47.3,3.7-63.8,43.6-68.8,85.2c-2.5,20.5-6,63.6,11.1,77.9c20.5,17.2,87,16.6,111.7,8.8&#10;&#9;&#9;&#9;c31.5-9.8,31.6-38.5,30.2-66.8C457.5,347,437.4,287.5,375.8,292.3z M658,397c-1.8-35-9-74.6-41.7-93.8&#10;&#9;&#9;&#9;c-31.6-18.5-79.1-15.5-104.8,11.8c-27,28.6-39.3,94.5-35.5,132.5c0.4,4.3,6.5,24.2,12.4,22.4c0.9-0.3,9-12.7,11.2-14.8&#10;&#9;&#9;&#9;c7.5-7.3,13.2-6,21.4-9.6c13.7-6,9.3-24.4,28.6-26.4c7-0.7,15.2,2.4,21.3,0.3c6-2,6.8-12.9,15.5-16.5c10.6-4.4,16.4,1.7,23.3,0.4&#10;&#9;&#9;&#9;c7.8-1.5,10.8-13.1,22.7-14.3C644.1,387.8,648.1,394.4,658,397z M746.8,292.3c-61.8,5.8-74.7,84.8-71.8,134.2&#10;&#9;&#9;&#9;c0.6,10.7,0.2,20,8.5,28.5c17.6,18.1,85.1,15.6,108.7,10.7c42.9-9,41.6-31.3,39.8-70.2C829.5,339.8,813.9,286,746.8,292.3z"/>
		<path d="M195.1,519l-19.8,57.7c-2.4,9.2,7.4,14.8,4.5,24.5L153.5,680l-6.5,1.6l-2-5.9l25.8-76.4c1.3-5.1-4-8-4.7-12.8&#10;&#9;&#9;&#9;c-0.6-3.5,0-8,0.2-11.7l19.8-58.2l-7.5-2.6c-7.9,16.9-12.4,36.4-19.8,53.3c-6.4,14.7-11.9,12.7-22.5,22.5l-30,88&#10;&#9;&#9;&#9;c-0.6,2.9-5.4,2-7.2,0.7c-2.9-2.1-1-5.5-0.3-8.2c6.9-27.7,21.5-56.9,29.3-84.7c2.4-9,14.5-9.3,18.9-15.1c2.2-2.9,4.4-9.5,5.9-13.1&#10;&#9;&#9;&#9;c6.1-15,10.3-31,17.3-45.7c-19.3-9-48.2-13.1-44.9-40.9c1.6-14,20.2-41.8,28.1-54.9c10.3-17.2,33.3-58.3,48.5-68.5&#10;&#9;&#9;&#9;c21.1-14.1,56.6-6.4,66.8,17.8c6.6,15.8,0.9,50.8-1.6,68.3c-2.9,19.7-6.6,49.3-12.3,67.7C245,531.5,220.1,526.6,195.1,519z&#10;&#9;&#9;&#9; M219.7,350.2c-12.4,1.9-21.1,13.5-28,23c-16.1,22.3-36.3,55.6-49,80c-5.1,9.8-12.8,23.2-3.8,33.2c5.8,6.5,48.5,20.1,59,23&#10;&#9;&#9;&#9;c20.5,5.6,40.1,12.3,47.7-13.3c6.9-23.1,18.1-92.8,16.3-115.7C260.4,359.2,240,347,219.7,350.2z"/>
		<path class="st0" d="M895,288c-33.4-2-56.1,26.4-60.5,57l-8.6-23.4c-16.3-35-56.2-45.9-91.9-37.1c-45.2,11-61.3,57.2-67.5,98.5&#10;&#9;&#9;&#9;c-3-29.2-10.2-59.8-33-80c-26.3-23.2-72.7-27.5-104.1-13.2c-39.4,17.9-53.5,63.8-59.8,103.2c-3-33.8-10.8-74.8-40.2-95.8&#10;&#9;&#9;&#9;c-27.5-19.7-70.9-20.9-97.3,1.3c-13.8,11.7-21.1,26.2-27,43c-0.9,2.6-0.3,6.4-2.9,7.6c-2.2-31.2-24.4-63.7-59-61&#10;&#9;&#9;&#9;c9.4-28.6,27.4-52.1,55.6-63.8c53.2-22.2,112.3-7.8,162.8,13.9c55.8-33.4,130.4-37.7,191.1-15c6.7,2.5,22.8,12,28,12.1&#10;&#9;&#9;&#9;c6.1,0.1,9.6-4.3,14.5-6.6C763.1,197.5,873.2,201.4,895,288z"/>
		<path class="st0" d="M746.8,292.3c67.1-6.3,82.7,47.5,85.2,103.2c1.8,38.9,3.1,61.3-39.8,70.2c-23.6,4.9-91.1,7.4-108.7-10.7&#10;&#9;&#9;&#9;c-8.3-8.5-7.8-17.8-8.5-28.5C672.1,377.1,685,298.1,746.8,292.3z"/>
		<path class="st0" d="M375.8,292.3c61.6-4.8,81.7,54.7,84.2,105.2c1.4,28.3,1.2,56.9-30.2,66.8c-24.7,7.7-91.2,8.4-111.7-8.8&#10;&#9;&#9;&#9;C301,441.1,304.5,398,307,377.5C312,335.9,328.5,296,375.8,292.3z"/>
		<path class="st0" d="M658,397c-9.9-2.6-13.9-9.2-25.5-8c-11.9,1.2-14.9,12.8-22.7,14.3c-6.9,1.3-12.7-4.7-23.3-0.4&#10;&#9;&#9;&#9;c-8.7,3.6-9.5,14.5-15.5,16.5c-6.1,2.1-14.4-1-21.3-0.3c-19.4,2-14.9,20.4-28.6,26.4c-8.1,3.6-13.9,2.3-21.4,9.6&#10;&#9;&#9;&#9;c-2.2,2.2-10.4,14.6-11.2,14.8c-5.9,1.8-11.9-18.1-12.4-22.4c-3.8-38,8.5-103.9,35.5-132.5c25.7-27.3,73.3-30.3,104.8-11.8&#10;&#9;&#9;&#9;C649,322.3,656.2,362,658,397z"/>
		<path class="st0" d="M219.7,350.2c20.3-3.2,40.6,8.9,42.3,30.2c1.8,23-9.4,92.6-16.3,115.7c-7.6,25.6-27.2,18.9-47.7,13.3&#10;&#9;&#9;&#9;c-10.5-2.9-53.2-16.5-59-23c-9-10-1.2-23.4,3.8-33.2c12.6-24.4,32.9-57.8,49-80C198.6,363.8,207.4,352.2,219.7,350.2z"/>
	</g>
</g>
</svg>