<svg width="300" height="100" xmlns="http://www.w3.org/2000/svg">
  <!-- Main logo text -->
  <path d="M10,40 L10,20 L25,20 C28,20 30,22 30,25 C30,28 28,30 25,30 L15,30 L15,40 L10,40 Z M15,25 L23,25 C24,25 25,25 25,24 C25,23 24,23 23,23 L15,23 Z" fill="#000"/>
  <path d="M35,40 C31,40 28,37 28,33 L28,20 L33,20 L33,33 C33,34 34,35 35,35 C36,35 37,34 37,33 L37,20 L42,20 L42,33 C42,37 39,40 35,40 Z" fill="#000"/>
  <path d="M47,40 C44,40 42,38 42,35 C42,32 44,30 47,30 L52,30 L52,29 C52,28 51,27 50,27 C49,27 48,28 48,29 L48,30 L43,30 L43,29 C43,25 46,22 50,22 C54,22 57,25 57,29 L57,40 L52,40 L52,38 C51,39 49,40 47,40 Z M48,35 C48,36 49,36 50,36 C51,36 52,36 52,35 L52,33 L50,33 C49,33 48,34 48,35 Z" fill="#000"/>
  <path d="M65,40 C61,40 58,37 58,33 L58,29 C58,25 61,22 65,22 C69,22 72,25 72,29 L72,33 C72,37 69,40 65,40 Z M65,26 C64,26 63,27 63,29 L63,33 C63,35 64,36 65,36 C66,36 67,35 67,33 L67,29 C67,27 66,26 65,26 Z" fill="#000"/>
  <path d="M77,40 L77,20 L87,20 C90,20 93,23 93,26 C93,28 92,30 90,31 C92,32 94,34 94,36 C94,39 91,42 88,42 L77,42 L77,40 Z M82,28 L87,28 C88,28 88,27 88,26 C88,25 88,24 87,24 L82,24 L82,28 Z M82,38 L88,38 C89,38 89,37 89,36 C89,35 89,34 88,34 L82,34 L82,38 Z" fill="#000"/>
  <path d="M98,40 L98,20 L113,20 L113,24 L103,24 L103,28 L112,28 L112,32 L103,32 L103,36 L113,36 L113,40 L98,40 Z" fill="#000"/>
  
  <!-- Subtitle text -->
  <path d="M10,60 L122,60" stroke="#444" stroke-width="1" />
  <text x="10" y="75" font-family="Arial, sans-serif" font-size="12" fill="#444444">Dental AI shade matching tool</text>
</svg>
