<?xml version="1.0" encoding="UTF-8" standalone="no"?>
<svg xmlns="http://www.w3.org/2000/svg" width="664" height="241" viewBox="0 0 664 241" fill="none">
  <path d="M76.0902 145.72H89.4102V95.74H116.71V83.45H49.2302V95.74H76.0902V145.72Z" fill="black"/>
  <path d="M142.47 146.86C157.72 146.86 167.78 137.38 167.78 121.74C167.78 106.1 157.72 96.62 142.47 96.62C127.21 96.62 117.16 106.1 117.16 121.74C117.16 137.38 127.21 146.86 142.47 146.86ZM142.47 135.23C134.71 135.23 129.95 130.17 129.95 121.74C129.95 113.31 134.71 108.25 142.47 108.25C150.24 108.25 154.99 113.31 154.99 121.74C154.99 130.17 150.24 135.23 142.47 135.23Z" fill="black"/>
  <path d="M208.72 146.86C223.97 146.86 234.03 137.38 234.03 121.74C234.03 106.1 223.97 96.62 208.72 96.62C193.46 96.62 183.41 106.1 183.41 121.74C183.41 137.38 193.46 146.86 208.72 146.86ZM208.72 135.23C200.95 135.23 196.2 130.17 196.2 121.74C196.2 113.31 200.95 108.25 208.72 108.25C216.48 108.25 221.24 113.31 221.24 121.74C221.24 130.17 216.48 135.23 208.72 135.23Z" fill="black"/>
  <path d="M269.49 146.86C276.96 146.86 282.77 143.83 286.06 138.52V145.72H298.15V97.76H286.06V104.96C282.77 99.65 276.96 96.62 269.49 96.62C255.75 96.62 246.99 106.03 246.99 121.74C246.99 137.45 255.75 146.86 269.49 146.86ZM273.1 135.45C265.25 135.45 259.78 130.47 259.78 121.74C259.78 112.94 265.25 108.03 273.1 108.03C281.02 108.03 286.28 113.01 286.28 121.74C286.28 130.47 281.02 135.45 273.1 135.45Z" fill="black"/>
  <path d="M319.38 145.72H332.17V68.11H319.38V145.72Z" fill="black"/>
  <path d="M366.78 146.86C382.03 146.86 392.09 137.38 392.09 121.74C392.09 106.1 382.03 96.62 366.78 96.62C351.52 96.62 341.47 106.1 341.47 121.74C341.47 137.38 351.52 146.86 366.78 146.86ZM366.78 135.23C359.01 135.23 354.26 130.17 354.26 121.74C354.26 113.31 359.01 108.25 366.78 108.25C374.54 108.25 379.3 113.31 379.3 121.74C379.3 130.17 374.54 135.23 366.78 135.23Z" fill="black"/>
  <path d="M435.42 146.86C447.81 146.86 456.93 141.01 459.24 131.01H446.45C444.95 135.01 441.01 137.45 435.64 137.45C428.02 137.45 423.04 132.68 422.17 124.77H460.02V120.77C460.02 105.13 450.04 96.62 434.64 96.62C419.67 96.62 409.33 106.1 409.33 121.67C409.33 137.52 419.6 146.86 435.42 146.86ZM422.24 116.32C423.11 109.32 428.02 105.88 434.64 105.88C441.44 105.88 446.05 109.39 446.7 116.32H422.24Z" fill="black"/>
  <path d="M474.17 163H487.28V140.3C490.5 144.76 496.37 146.86 502.67 146.86C516.5 146.86 525.32 137.45 525.32 121.74C525.32 106.03 516.5 96.62 502.67 96.62C495.28 96.62 489.32 99.72 486.03 105.02V97.76H474.17V163ZM499.06 135.45C491.13 135.45 486.1 130.47 486.1 121.74C486.1 113.01 491.21 108.03 499.06 108.03C507.06 108.03 512.53 112.94 512.53 121.74C512.53 130.54 507.06 135.45 499.06 135.45Z" fill="black"/>
  <path d="M561.15 146.86C573.54 146.86 582.66 141.01 584.97 131.01H572.18C570.68 135.01 566.74 137.45 561.36 137.45C553.75 137.45 548.76 132.68 547.9 124.77H585.75V120.77C585.75 105.13 575.76 96.62 560.36 96.62C545.39 96.62 535.05 106.1 535.05 121.67C535.05 137.52 545.32 146.86 561.15 146.86ZM547.97 116.32C548.83 109.32 553.75 105.88 560.36 105.88C567.16 105.88 571.78 109.39 572.43 116.32H547.97Z" fill="black"/>
</svg>
